<svg width="127" height="125" viewBox="0 0 127 125" fill="none" xmlns="http://www.w3.org/2000/svg">
<g filter="url(#filter0_dddddd_105_30)">
<path d="M69.5127 57.7563C69.5127 57.5021 69.4043 57.2583 69.2114 57.0786C69.0185 56.8989 68.7569 56.7979 68.4842 56.7979L60.2563 56.75C59.9836 56.75 59.722 56.851 59.5291 57.0307C59.3362 57.2104 59.2278 57.4542 59.2278 57.7083C59.2278 57.9625 59.3362 58.2063 59.5291 58.386C59.722 58.5657 59.9836 58.6667 60.2563 58.6667H65.9747L57.4691 66.6113C57.3727 66.7003 57.2962 66.8063 57.244 66.9231C57.1918 67.0399 57.1649 67.1652 57.1649 67.2917C57.1649 67.4182 57.1918 67.5434 57.244 67.6602C57.2962 67.777 57.3727 67.883 57.4691 67.9721C57.5648 68.0619 57.6785 68.1332 57.8038 68.1819C57.9292 68.2305 58.0636 68.2556 58.1994 68.2556C58.3351 68.2556 58.4696 68.2305 58.5949 68.1819C58.7202 68.1332 58.834 68.0619 58.9296 67.9721L67.4557 60.0275V65.375C67.4557 65.6292 67.564 65.8729 67.7569 66.0526C67.9498 66.2324 68.2114 66.3333 68.4842 66.3333C68.7569 66.3333 69.0185 66.2324 69.2114 66.0526C69.4043 65.8729 69.5127 65.6292 69.5127 65.375V57.7563Z" fill="#2FA15D"/>
</g>
<defs>
<filter id="filter0_dddddd_105_30" x="0.437519" y="0.0226021" width="125.803" height="124.96" filterUnits="userSpaceOnUse" color-interpolation-filters="sRGB">
<feFlood flood-opacity="0" result="BackgroundImageFix"/>
<feColorMatrix in="SourceAlpha" type="matrix" values="0 0 0 0 0 0 0 0 0 0 0 0 0 0 0 0 0 0 127 0" result="hardAlpha"/>
<feOffset/>
<feGaussianBlur stdDeviation="0.675326"/>
<feColorMatrix type="matrix" values="0 0 0 0 0.156863 0 0 0 0 0.423529 0 0 0 0 0.223529 0 0 0 1 0"/>
<feBlend mode="normal" in2="BackgroundImageFix" result="effect1_dropShadow_105_30"/>
<feColorMatrix in="SourceAlpha" type="matrix" values="0 0 0 0 0 0 0 0 0 0 0 0 0 0 0 0 0 0 127 0" result="hardAlpha"/>
<feOffset/>
<feGaussianBlur stdDeviation="1.35065"/>
<feColorMatrix type="matrix" values="0 0 0 0 0.156863 0 0 0 0 0.423529 0 0 0 0 0.223529 0 0 0 1 0"/>
<feBlend mode="normal" in2="effect1_dropShadow_105_30" result="effect2_dropShadow_105_30"/>
<feColorMatrix in="SourceAlpha" type="matrix" values="0 0 0 0 0 0 0 0 0 0 0 0 0 0 0 0 0 0 127 0" result="hardAlpha"/>
<feOffset/>
<feGaussianBlur stdDeviation="4.72728"/>
<feColorMatrix type="matrix" values="0 0 0 0 0.156863 0 0 0 0 0.423529 0 0 0 0 0.223529 0 0 0 1 0"/>
<feBlend mode="normal" in2="effect2_dropShadow_105_30" result="effect3_dropShadow_105_30"/>
<feColorMatrix in="SourceAlpha" type="matrix" values="0 0 0 0 0 0 0 0 0 0 0 0 0 0 0 0 0 0 127 0" result="hardAlpha"/>
<feOffset/>
<feGaussianBlur stdDeviation="9.45457"/>
<feColorMatrix type="matrix" values="0 0 0 0 0.156863 0 0 0 0 0.423529 0 0 0 0 0.223529 0 0 0 1 0"/>
<feBlend mode="normal" in2="effect3_dropShadow_105_30" result="effect4_dropShadow_105_30"/>
<feColorMatrix in="SourceAlpha" type="matrix" values="0 0 0 0 0 0 0 0 0 0 0 0 0 0 0 0 0 0 127 0" result="hardAlpha"/>
<feOffset/>
<feGaussianBlur stdDeviation="16.2078"/>
<feColorMatrix type="matrix" values="0 0 0 0 0.156863 0 0 0 0 0.423529 0 0 0 0 0.223529 0 0 0 1 0"/>
<feBlend mode="normal" in2="effect4_dropShadow_105_30" result="effect5_dropShadow_105_30"/>
<feColorMatrix in="SourceAlpha" type="matrix" values="0 0 0 0 0 0 0 0 0 0 0 0 0 0 0 0 0 0 127 0" result="hardAlpha"/>
<feOffset/>
<feGaussianBlur stdDeviation="28.3637"/>
<feColorMatrix type="matrix" values="0 0 0 0 0.156863 0 0 0 0 0.423529 0 0 0 0 0.223529 0 0 0 1 0"/>
<feBlend mode="normal" in2="effect5_dropShadow_105_30" result="effect6_dropShadow_105_30"/>
<feBlend mode="normal" in="SourceGraphic" in2="effect6_dropShadow_105_30" result="shape"/>
</filter>
</defs>
</svg>
