<svg width="30" height="27" viewBox="0 0 30 27" fill="none" xmlns="http://www.w3.org/2000/svg">
<path d="M17.3438 0H28.5938C29.3704 0 30 0.62959 30 1.40625V10.7813C30 11.5579 29.3704 12.1875 28.5938 12.1875H17.3438C16.5671 12.1875 15.9375 11.5579 15.9375 10.7813V1.40625C15.9375 0.62959 16.5671 0 17.3438 0ZM12.6562 0H1.40625C0.62959 0 0 0.62959 0 1.40625V10.7813C0 11.5579 0.62959 12.1875 1.40625 12.1875H12.6562C13.4329 12.1875 14.0625 11.5579 14.0625 10.7813V1.40625C14.0625 0.62959 13.4329 0 12.6562 0ZM0 15.4688V24.8438C0 25.6204 0.62959 26.25 1.40625 26.25H12.6562C13.4329 26.25 14.0625 25.6204 14.0625 24.8438V15.4688C14.0625 14.6921 13.4329 14.0625 12.6562 14.0625H1.40625C0.62959 14.0625 0 14.6921 0 15.4688ZM17.3438 26.25H28.5938C29.3704 26.25 30 25.6204 30 24.8438V15.4688C30 14.6921 29.3704 14.0625 28.5938 14.0625H17.3438C16.5671 14.0625 15.9375 14.6921 15.9375 15.4688V24.8438C15.9375 25.6204 16.5671 26.25 17.3438 26.25Z" fill="white"/>
</svg>
