<svg width="127" height="127" viewBox="0 0 127 127" fill="none" xmlns="http://www.w3.org/2000/svg">
<g filter="url(#filter0_dddddd_23_28)">
<path d="M69.4479 57.5521C69.3511 57.4545 69.2359 57.377 69.1089 57.3241C68.982 57.2712 68.8458 57.244 68.7083 57.244C68.5708 57.244 68.4347 57.2712 68.3077 57.3241C68.1808 57.377 68.0656 57.4545 67.9688 57.5521L59.3333 66.1979V60.375C59.3333 60.0987 59.2236 59.8338 59.0282 59.6384C58.8329 59.4431 58.5679 59.3333 58.2917 59.3333C58.0154 59.3333 57.7504 59.4431 57.5551 59.6384C57.3597 59.8338 57.25 60.0987 57.25 60.375V68.7083C57.25 68.9846 57.3597 69.2496 57.5551 69.4449C57.7504 69.6403 58.0154 69.75 58.2917 69.75H66.625C66.9013 69.75 67.1662 69.6403 67.3616 69.4449C67.5569 69.2496 67.6667 68.9846 67.6667 68.7083C67.6667 68.4321 67.5569 68.1671 67.3616 67.9718C67.1662 67.7764 66.9013 67.6667 66.625 67.6667H60.8021L69.4479 59.0313C69.5456 58.9344 69.623 58.8192 69.6759 58.6923C69.7288 58.5653 69.756 58.4292 69.756 58.2917C69.756 58.1542 69.7288 58.018 69.6759 57.8911C69.623 57.7641 69.5456 57.6489 69.4479 57.5521Z" fill="#A23D2F"/>
</g>
<defs>
<filter id="filter0_dddddd_23_28" x="0.522602" y="0.516575" width="125.961" height="125.961" filterUnits="userSpaceOnUse" color-interpolation-filters="sRGB">
<feFlood flood-opacity="0" result="BackgroundImageFix"/>
<feColorMatrix in="SourceAlpha" type="matrix" values="0 0 0 0 0 0 0 0 0 0 0 0 0 0 0 0 0 0 127 0" result="hardAlpha"/>
<feOffset/>
<feGaussianBlur stdDeviation="0.675326"/>
<feColorMatrix type="matrix" values="0 0 0 0 0.47451 0 0 0 0 0.145098 0 0 0 0 0.145098 0 0 0 1 0"/>
<feBlend mode="normal" in2="BackgroundImageFix" result="effect1_dropShadow_23_28"/>
<feColorMatrix in="SourceAlpha" type="matrix" values="0 0 0 0 0 0 0 0 0 0 0 0 0 0 0 0 0 0 127 0" result="hardAlpha"/>
<feOffset/>
<feGaussianBlur stdDeviation="1.35065"/>
<feColorMatrix type="matrix" values="0 0 0 0 0.47451 0 0 0 0 0.145098 0 0 0 0 0.145098 0 0 0 1 0"/>
<feBlend mode="normal" in2="effect1_dropShadow_23_28" result="effect2_dropShadow_23_28"/>
<feColorMatrix in="SourceAlpha" type="matrix" values="0 0 0 0 0 0 0 0 0 0 0 0 0 0 0 0 0 0 127 0" result="hardAlpha"/>
<feOffset/>
<feGaussianBlur stdDeviation="4.72728"/>
<feColorMatrix type="matrix" values="0 0 0 0 0.47451 0 0 0 0 0.145098 0 0 0 0 0.145098 0 0 0 1 0"/>
<feBlend mode="normal" in2="effect2_dropShadow_23_28" result="effect3_dropShadow_23_28"/>
<feColorMatrix in="SourceAlpha" type="matrix" values="0 0 0 0 0 0 0 0 0 0 0 0 0 0 0 0 0 0 127 0" result="hardAlpha"/>
<feOffset/>
<feGaussianBlur stdDeviation="9.45457"/>
<feColorMatrix type="matrix" values="0 0 0 0 0.47451 0 0 0 0 0.145098 0 0 0 0 0.145098 0 0 0 1 0"/>
<feBlend mode="normal" in2="effect3_dropShadow_23_28" result="effect4_dropShadow_23_28"/>
<feColorMatrix in="SourceAlpha" type="matrix" values="0 0 0 0 0 0 0 0 0 0 0 0 0 0 0 0 0 0 127 0" result="hardAlpha"/>
<feOffset/>
<feGaussianBlur stdDeviation="16.2078"/>
<feColorMatrix type="matrix" values="0 0 0 0 0.47451 0 0 0 0 0.145098 0 0 0 0 0.145098 0 0 0 1 0"/>
<feBlend mode="normal" in2="effect4_dropShadow_23_28" result="effect5_dropShadow_23_28"/>
<feColorMatrix in="SourceAlpha" type="matrix" values="0 0 0 0 0 0 0 0 0 0 0 0 0 0 0 0 0 0 127 0" result="hardAlpha"/>
<feOffset/>
<feGaussianBlur stdDeviation="28.3637"/>
<feColorMatrix type="matrix" values="0 0 0 0 0.47451 0 0 0 0 0.145098 0 0 0 0 0.145098 0 0 0 1 0"/>
<feBlend mode="normal" in2="effect5_dropShadow_23_28" result="effect6_dropShadow_23_28"/>
<feBlend mode="normal" in="SourceGraphic" in2="effect6_dropShadow_23_28" result="shape"/>
</filter>
</defs>
</svg>
