<svg width="30" height="24" viewBox="0 0 30 24" fill="none" xmlns="http://www.w3.org/2000/svg">
<path d="M29.5848 12.5301L19.5843 22.6011C18.6914 23.5003 17.1437 22.8708 17.1437 21.582V15.8271H9.04807C8.25636 15.8271 7.61943 15.1857 7.61943 14.3884V8.63356C7.61943 7.83627 8.25636 7.19485 9.04807 7.19485H17.1437V1.43999C17.1437 0.157136 18.6854 -0.478297 19.5843 0.4209L29.5848 10.4919C30.1384 11.0554 30.1384 11.9666 29.5848 12.5301ZM11.4291 22.3014V19.9035C11.4291 19.5078 11.1077 19.1841 10.7148 19.1841H5.71457C4.66095 19.1841 3.80971 18.3269 3.80971 17.2659V5.75613C3.80971 4.69508 4.66095 3.83785 5.71457 3.83785H10.7148C11.1077 3.83785 11.4291 3.51414 11.4291 3.11849V0.720632C11.4291 0.324986 11.1077 0.00127498 10.7148 0.00127498H5.71457C2.55965 0.00127498 0 2.57897 0 5.75613V17.2659C0 20.443 2.55965 23.0207 5.71457 23.0207H10.7148C11.1077 23.0207 11.4291 22.697 11.4291 22.3014Z" fill="white"/>
</svg>
