<svg width="30" height="30" viewBox="0 0 30 30" fill="none" xmlns="http://www.w3.org/2000/svg">
<path d="M0 8.13838V6.976C0 6.01304 0.62959 5.23243 1.40625 5.23243H22.5V1.7453C22.5 0.193022 24.0175 -0.582501 24.9006 0.512385L29.5881 6.32427C30.1373 7.0052 30.1373 8.10917 29.5881 8.79003L24.9006 14.6019C24.0209 15.6925 22.5 14.9278 22.5 13.3691V9.88194H1.40625C0.62959 9.88194 0 9.10133 0 8.13838ZM28.5938 19.181H7.5V15.6938C7.5 14.1454 5.98465 13.3633 5.09936 14.4609L0.411855 20.2728C-0.137285 20.9537 -0.137285 22.0577 0.411855 22.7386L5.09936 28.5504C5.9799 29.6421 7.5 28.875 7.5 27.3176V23.8305H28.5938C29.3704 23.8305 30 23.0499 30 22.0869V20.9245C30 19.9616 29.3704 19.181 28.5938 19.181Z" fill="white"/>
</svg>
